<svg width="44" height="44" viewBox="0 0 44 44" fill="currentColor" xmlns="http://www.w3.org/2000/svg">
<path d="M37.4427 14.2519C35.8911 6.4295 30.4261 1.375 23.5195 1.375H23.5188C23.2995 1.375 23.0774 1.3805 22.8554 1.39013C16.8294 1.66513 12.8873 3.46706 10.4508 7.06063C8.09268 10.5366 7.15561 15.6214 7.41205 23.5482C7.46018 25.0601 7.16043 26.9631 6.8428 28.9767C6.1608 33.3052 5.45405 37.7809 7.83486 40.5116C9.05792 41.9141 10.9224 42.625 13.3782 42.625C13.944 42.625 14.5538 42.5879 15.1918 42.5136C18.4719 42.1314 19.7176 40.4243 20.9228 38.7736C22.2497 36.9559 23.7546 34.8954 28.6214 32.9574C36.6006 29.7784 38.7882 21.0334 37.4427 14.2519ZM28.0144 31.4868C18.1804 35.4035 20.5818 40.2889 15.0027 40.9379C14.417 41.0059 13.8759 41.0382 13.3789 41.0382C4.12992 41.0382 9.22774 29.7784 9.02561 23.4967C8.55261 8.88594 12.2466 3.46294 22.931 2.97481C23.1283 2.96588 23.3242 2.96106 23.5188 2.96106C37.5122 2.96175 41.2646 26.2096 28.0144 31.4868Z" fill="currentColor"/>
<path d="M31.8202 18.4946C31.6267 16.4071 31.0648 14.3704 30.1606 12.4789C29.2214 10.5904 27.9159 8.77537 25.9813 7.49524C25.0229 6.85518 23.8858 6.3808 22.6648 6.21443C21.4472 6.03774 20.1801 6.18143 19.0403 6.55818C17.9959 6.9088 16.9571 7.36943 15.9946 8.02255C15.0349 8.67224 14.1624 9.53024 13.5148 10.5546C12.8864 11.5886 12.4946 12.7622 12.3894 13.9206C12.2963 15.0452 12.4131 16.1773 12.7338 17.2591C13.191 18.8184 13.9363 20.2394 14.9256 21.446C14.1363 21.2397 13.3464 21.1366 12.553 21.1029L12.4698 21.3759C13.3223 21.8901 14.1659 22.3803 14.8891 22.9296C15.2459 23.2046 15.5711 23.4996 15.8111 23.789C16.0565 24.0819 16.1686 24.3775 16.1789 24.5755C16.1844 24.7756 16.1184 24.9433 15.9719 25.1956C15.8351 25.4445 15.6041 25.7332 15.3257 26.0158C14.7606 26.583 14.0586 27.1564 13.3271 27.7476C12.5943 28.3684 11.8366 28.9239 11.0364 29.8637C10.8363 30.1195 10.6149 30.3807 10.4039 30.8874C10.2634 31.2331 10.216 31.6095 10.2664 31.9792C10.3262 32.4549 10.6232 32.9018 10.8858 33.128C11.1615 33.3748 11.3733 33.4745 11.6084 33.5769C11.8009 33.656 11.9508 33.6959 12.0958 33.7392C12.3976 33.821 12.7043 33.8829 13.0116 33.9241C14.204 34.0737 15.4147 33.8956 16.5137 33.4092C17.5614 32.9568 18.4215 32.2617 19.164 31.5254C19.9051 30.7802 20.5163 29.9593 21.0759 29.1254C21.6295 28.2915 22.1219 27.4186 22.5493 26.5136C22.9734 25.6061 23.3736 24.6621 23.6252 23.6329C23.8748 22.6182 23.9621 21.4941 23.7703 20.4044C23.3997 18.1907 21.7689 16.2423 19.7876 15.2502C18.2455 14.4596 16.4724 14.2334 14.8754 14.5476C15.0583 13.6415 15.402 12.8144 15.9403 12.129C16.8884 10.8626 18.3748 9.92968 20.0626 9.20162C20.8113 8.87024 21.5984 8.69562 22.3966 8.73274C23.1934 8.7733 23.9978 9.01737 24.7527 9.43468C26.2611 10.2858 27.5158 11.7385 28.4473 13.3569C29.3947 14.9787 30.0506 16.8006 30.3813 18.6788C30.7188 20.5536 30.736 22.5096 30.252 24.3658C29.7769 26.2138 28.7423 27.9566 27.1534 29.1549L27.3184 29.3907C28.2043 28.8544 28.9857 28.1622 29.625 27.3475C30.2637 26.5301 30.7539 25.5999 31.1079 24.6257C31.8154 22.6697 31.9962 20.5584 31.8202 18.4946ZM16.3329 15.9089C17.1696 16.2334 17.9327 16.6431 18.6009 17.145C19.9601 18.1432 20.8346 19.4969 21.4231 21.0081C21.5806 21.3869 21.7105 21.7856 21.8102 22.2002C21.87 22.4037 21.9044 22.6264 21.947 22.8272C21.9834 23.0857 22.0089 23.2479 22.0274 23.4865C22.0934 24.3672 21.9924 25.2987 21.6809 26.1671C21.0684 27.9106 19.7463 29.4093 18.1685 30.3058C16.7344 31.1205 15.1724 31.5172 13.8682 31.3322C14.3185 30.9404 14.852 30.5024 15.3594 30.0528C16.0964 29.3859 16.8581 28.6744 17.5223 27.7476C17.8516 27.2808 18.1699 26.7631 18.3885 26.1176C18.6037 25.483 18.6553 24.6436 18.3686 23.9217C18.0915 23.1964 17.5731 22.7096 17.0878 22.3734C16.7454 22.1364 16.3764 21.9403 15.9884 21.7891C15.3223 20.1679 14.8747 18.5042 14.7427 16.8968C14.7056 16.4032 14.7083 15.9192 14.7468 15.4489C15.2989 15.572 15.8269 15.7191 16.3329 15.9089Z" fill="currentColor"/>
</svg>
