<svg width="44" height="44" viewBox="0 0 44 44" fill="currentColor" xmlns="http://www.w3.org/2000/svg">
<path d="M14.212 8.5965C14.4637 8.37318 14.7885 8.2499 15.125 8.25H17.875C18.2397 8.25 18.5894 8.39487 18.8473 8.65273C19.1051 8.91059 19.25 9.26033 19.25 9.625C19.25 9.98967 19.1051 10.3394 18.8473 10.5973C18.5894 10.8551 18.2397 11 17.875 11H15.6475L9.4545 16.5H15.125C16.219 16.5 17.2682 16.9346 18.0418 17.7082C18.8154 18.4818 19.25 19.531 19.25 20.625V22H24.75V20.625C24.75 19.531 25.1846 18.4818 25.9582 17.7082C26.7318 16.9346 27.781 16.5 28.875 16.5H34.5455L28.3525 11H26.125C25.7603 11 25.4106 10.8551 25.1527 10.5973C24.8949 10.3394 24.75 9.98967 24.75 9.625C24.75 9.26033 24.8949 8.91059 25.1527 8.65273C25.4106 8.39487 25.7603 8.25 26.125 8.25H28.875C29.2115 8.2499 29.5363 8.37318 29.788 8.5965L39.7485 17.4405C40.2182 17.8276 40.5965 18.3139 40.8561 18.8645C41.1157 19.4151 41.2502 20.0163 41.25 20.625V26.125C41.25 27.0278 41.0722 27.9218 40.7267 28.7559C40.3812 29.5901 39.8748 30.348 39.2364 30.9864C38.598 31.6248 37.8401 32.1312 37.006 32.4767C36.1718 32.8222 35.2778 33 34.375 33H31.625C29.8016 33 28.053 32.2757 26.7636 30.9864C25.4743 29.697 24.75 27.9484 24.75 26.125V24.75H19.25V26.125C19.25 27.0278 19.0722 27.9218 18.7267 28.7559C18.3812 29.5901 17.8748 30.348 17.2364 30.9864C16.598 31.6248 15.8401 32.1312 15.0059 32.4767C14.1718 32.8222 13.2778 33 12.375 33H9.625C7.80164 33 6.05295 32.2757 4.76364 30.9864C3.47433 29.697 2.75 27.9484 2.75 26.125V20.625C2.74981 20.0163 2.88434 19.4151 3.14394 18.8645C3.40354 18.3139 3.78177 17.8276 4.2515 17.4405L14.212 8.5965ZM37.972 19.5415C37.7303 19.3521 37.432 19.2495 37.125 19.25H28.875C28.5103 19.25 28.1606 19.3949 27.9027 19.6527C27.6449 19.9106 27.5 20.2603 27.5 20.625V26.125C27.5 27.219 27.9346 28.2682 28.7082 29.0418C29.4818 29.8154 30.531 30.25 31.625 30.25H34.375C35.469 30.25 36.5182 29.8154 37.2918 29.0418C38.0654 28.2682 38.5 27.219 38.5 26.125V20.625C38.4998 20.4288 38.4575 20.235 38.3759 20.0566C38.2943 19.8782 38.1753 19.7194 38.027 19.591L37.972 19.5415ZM5.9675 19.5883C5.81999 19.7176 5.70194 19.8771 5.62129 20.0559C5.54065 20.2348 5.49929 20.4288 5.5 20.625V26.125C5.5 27.219 5.9346 28.2682 6.70818 29.0418C7.48177 29.8154 8.53098 30.25 9.625 30.25H12.375C13.469 30.25 14.5182 29.8154 15.2918 29.0418C16.0654 28.2682 16.5 27.219 16.5 26.125V20.625C16.5 20.2603 16.3551 19.9106 16.0973 19.6527C15.8394 19.3949 15.4897 19.25 15.125 19.25H6.875C6.56797 19.2495 6.26968 19.3521 6.028 19.5415L5.973 19.5883H5.9675Z" fill="currentColor"/>
</svg>
