<svg width="44" height="35" viewBox="0 0 44 35" fill="none" xmlns="http://www.w3.org/2000/svg">
<g clip-path="url(#clip0_2027_827)">
<rect width="44" height="35" fill="white"/>
<path d="M17.9301 17.7735C15.9569 16.208 13.6676 15.3809 11.3026 15.3809C5.98269 15.3809 1.47819 19.6704 0.0963143 26.045C-0.144311 27.1811 0.070533 28.361 0.689283 29.2838C1.29085 30.1807 2.19353 30.6934 3.15603 30.6934H40.7001C33.6051 30.6934 30.0438 28.1552 24.6676 23.5498L17.9301 17.7735ZM34.0657 16.5293L32.2005 5.83108C32.0028 4.65189 31.3239 3.6094 30.336 2.9429C29.3481 2.2764 28.1195 2.03372 26.9508 2.28152L13.8119 5.05999C11.9419 5.45306 10.5532 6.99319 10.3469 8.87308L9.87256 13.3301C10.3452 13.2703 10.8089 13.1934 11.2991 13.1934C14.1777 13.1934 16.9366 14.1846 19.3704 16.1246L26.1079 21.8921C30.9891 26.0791 34.021 28.5059 40.6966 28.5059C42.5185 28.5059 43.9966 27.0362 43.9966 25.2246C44.0001 23.4883 41.9651 17.0625 34.0657 16.5293Z" fill="black"/>
</g>
<defs>
<clipPath id="clip0_2027_827">
<rect width="44" height="35" fill="white"/>
</clipPath>
</defs>
</svg>
