<svg width="44" height="29" viewBox="0 0 44 29" fill="currentColor" xmlns="http://www.w3.org/2000/svg">
<path d="M17.9301 15.7735C15.9569 14.208 13.6676 13.3809 11.3026 13.3809C5.98269 13.3809 1.47819 17.6704 0.0963143 24.045C-0.144311 25.1811 0.070533 26.361 0.689283 27.2838C1.29085 28.1807 2.19353 28.6934 3.15603 28.6934H40.7001C33.6051 28.6934 30.0438 26.1552 24.6676 21.5498L17.9301 15.7735ZM34.0657 14.5293L32.2005 3.83108C32.0028 2.65189 31.3239 1.6094 30.336 0.942901C29.3481 0.276397 28.1195 0.0337211 26.9508 0.281524L13.8119 3.05999C11.9419 3.45306 10.5532 4.99319 10.3469 6.87308L9.87256 11.3301C10.3452 11.2703 10.8089 11.1934 11.2991 11.1934C14.1777 11.1934 16.9366 12.1846 19.3704 14.1246L26.1079 19.8921C30.9891 24.0791 34.021 26.5059 40.6966 26.5059C42.5185 26.5059 43.9966 25.0362 43.9966 23.2246C44.0001 21.4883 41.9651 15.0625 34.0657 14.5293Z" fill="currentColor"/>
</svg>
