<svg width="44" height="44" viewBox="0 0 44 44" fill="currentColor" xmlns="http://www.w3.org/2000/svg">
<path d="M32.1207 24.9528C31.9351 23.9346 31.7295 22.8779 31.5281 21.8467C31.0069 19.1771 30.4686 16.4168 30.4686 15.1367C30.4679 5.61894 27.8561 1.375 21.9986 1.375C16.1418 1.375 13.53 5.61894 13.53 15.1374C13.53 16.4189 12.991 19.1819 12.4692 21.8542C12.2691 22.8827 12.0636 23.9374 11.8786 24.9535C7.92619 25.2828 4.8125 28.5704 4.8125 32.5648C4.8125 36.2794 8.43769 39.4302 11.0385 40.0544C11.3183 40.1218 11.6428 40.1548 12.0319 40.1548C12.7689 40.1548 13.7541 40.0276 14.5262 39.8722C16.6004 41.6542 19.2218 42.625 21.9986 42.625C24.7768 42.625 27.3983 41.6536 29.4718 39.8716C30.2445 40.0269 31.2304 40.1541 31.9681 40.1541C32.3579 40.1541 32.6824 40.1211 32.9615 40.0537C35.5616 39.4309 39.1875 36.2801 39.1875 32.5648C39.1875 28.5704 36.0724 25.2814 32.1207 24.9528ZM32.6033 38.511C32.3943 38.5536 32.1813 38.5727 31.9681 38.5681C31.1011 38.5681 29.8952 38.3618 29.3164 38.2106C29.9083 37.8964 30.6488 37.5705 31.4442 37.4021C35.6565 36.5042 33.8277 34.5317 31.0097 35.4303C28.7973 36.1357 28.0912 38.819 28.05 38.9799C26.3161 40.3165 24.1879 41.0404 21.9986 41.0382C19.8108 41.0406 17.6839 40.3177 15.9507 38.9826C15.917 38.8499 15.2151 36.1398 12.9896 35.4303C10.1722 34.5317 8.3435 36.5049 12.5558 37.4021C13.3499 37.5705 14.0903 37.8971 14.6829 38.2106C14.1054 38.3611 12.8975 38.5681 12.0319 38.5681C11.7844 38.5681 11.5637 38.5509 11.3974 38.511C9.5205 38.0607 6.3745 35.5266 6.3745 32.5655C6.3745 29.2236 9.13138 26.5127 12.5318 26.5127C12.7531 26.5127 12.9718 26.5251 13.1863 26.5478C13.8573 22.5122 15.0913 17.3229 15.0913 15.1374C15.0913 4.87919 18.183 2.96175 21.9979 2.96175C25.8163 2.96175 28.9052 4.87919 28.9052 15.1374C28.9052 17.3222 30.14 22.5122 30.811 26.5485C31.0262 26.5251 31.2455 26.5127 31.4669 26.5127C34.8673 26.5127 37.6241 29.2229 37.6241 32.5655C37.6255 35.5266 34.4795 38.0607 32.6033 38.511Z" fill="currentColor"/>
</svg>
